<svg xmlns="http://www.w3.org/2000/svg" width="23.281" height="23.454" viewBox="0 0 23.281 23.454"><defs><style>.a{fill:#fff;}</style></defs><path class="a" d="M25.859,16.224a3.017,3.017,0,0,1,1.922-2.815,12.007,12.007,0,0,0-1.437-3.487,3,3,0,0,1-3.953-3.975A11.793,11.793,0,0,0,18.935,4.5a2.986,2.986,0,0,1-5.59,0A11.828,11.828,0,0,0,9.884,5.947a3.027,3.027,0,0,1-.618,3.358,2.977,2.977,0,0,1-2.116.879,2.919,2.919,0,0,1-1.219-.263A12.273,12.273,0,0,0,4.5,13.415a3.024,3.024,0,0,1,.006,5.63,12.007,12.007,0,0,0,1.437,3.487,2.988,2.988,0,0,1,3.328.623,3.036,3.036,0,0,1,.618,3.352,11.9,11.9,0,0,0,3.462,1.447,2.98,2.98,0,0,1,5.578,0,11.828,11.828,0,0,0,3.462-1.447,3.038,3.038,0,0,1,.618-3.352,2.988,2.988,0,0,1,3.328-.623,12.077,12.077,0,0,0,1.437-3.487A3.031,3.031,0,0,1,25.859,16.224ZM16.195,21.1a4.885,4.885,0,1,1,4.85-4.885A4.866,4.866,0,0,1,16.195,21.1Z" transform="translate(-4.5 -4.5)"/></svg>